name rise30.9205peak61.366fall85.3838.mot
datacolumns 19
datarows 26
range 10.15496000000000 10.19663200000000
endheader
time	ground_force1_vx	ground_force1_vy	ground_force1_vz	ground_force1_px	ground_force1_py	ground_force1_pz	ground_force2_vx	ground_force2_vy	ground_force2_vz	ground_force2_px	ground_force2_py	ground_force2_pz	ground_torque1_x	ground_torque1_y	ground_torque1_z	ground_torque2_x	ground_torque2_y	ground_torque2_z	
10.15496000000000	-4.24523400000000	46.07124100000000	-8.91846500000000	0.34781200000000	0.00000000000000	0.11093300000000	-43.12450700000000	794.55468499999995	-53.28581000000000	0.13204700000000	0.00000000000000	-0.07020900000000	0.00000000000000	-6.72739200000000	0.00000000000000	0.00000000000000	-18.18505400000000	0.00000000000000	
10.15663500000000	-4.41538000000000	52.74343500000000	-9.78532400000000	0.35286600000000	0.00000000000000	0.11167600000000	-43.69454200000000	792.40899600000000	-53.03676600000000	0.13125500000000	0.00000000000000	-0.07008800000000	0.00000000000000	-7.47121500000000	0.00000000000000	0.00000000000000	-18.10530300000000	0.00000000000000	
10.15830100000000	-4.46741600000000	59.36865400000000	-10.53367600000000	0.35749200000000	0.00000000000000	0.11235700000000	-44.28185000000000	790.16470000000004	-52.77731000000000	0.13046900000000	0.00000000000000	-0.06996500000000	0.00000000000000	-8.14157100000000	0.00000000000000	0.00000000000000	-18.02737300000000	0.00000000000000	
10.15996700000000	-4.39461900000000	65.88046600000000	-11.14974500000000	0.36174600000000	0.00000000000000	0.11298500000000	-44.88641900000000	787.82021399999996	-52.50730200000000	0.12968800000000	0.00000000000000	-0.06983800000000	0.00000000000000	-8.72671200000000	0.00000000000000	0.00000000000000	-17.95129200000000	0.00000000000000	
10.16163400000000	-4.19530000000000	72.23713800000000	-11.62712400000000	0.36567200000000	0.00000000000000	0.11356700000000	-45.50815600000000	785.37389099999996	-52.22659300000000	0.12891200000000	0.00000000000000	-0.06970900000000	0.00000000000000	-9.22038300000000	0.00000000000000	0.00000000000000	-17.87707100000000	0.00000000000000	
10.16329600000000	-3.87227400000000	78.42120000000000	-11.96622400000000	0.36930800000000	0.00000000000000	0.11411000000000	-46.14688100000000	782.82402100000002	-51.93502700000000	0.12814300000000	0.00000000000000	-0.06957700000000	0.00000000000000	-9.62152800000000	0.00000000000000	0.00000000000000	-17.80470600000000	0.00000000000000	
10.16496000000000	-3.43206600000000	84.43708200000000	-12.17326900000000	0.37268600000000	0.00000000000000	0.11461700000000	-46.80232500000000	780.16883299999995	-51.63244300000000	0.12737900000000	0.00000000000000	-0.06944200000000	0.00000000000000	-9.93361600000000	0.00000000000000	0.00000000000000	-17.73417800000000	0.00000000000000	
10.16662800000000	-2.88393600000000	90.30735799999999	-12.25897900000000	0.37583200000000	0.00000000000000	0.11509500000000	-47.47413000000000	777.40649599999995	-51.31867700000000	0.12662100000000	0.00000000000000	-0.06930400000000	0.00000000000000	-10.16370800000000	0.00000000000000	0.00000000000000	-17.66544900000000	0.00000000000000	
10.16829700000000	-2.23887000000000	96.06814900000001	-12.23711900000000	0.37876700000000	0.00000000000000	0.11554500000000	-48.16184800000000	774.53512699999999	-50.99356200000000	0.12587000000000	0.00000000000000	-0.06916400000000	0.00000000000000	-10.32138700000000	0.00000000000000	0.00000000000000	-17.59847000000000	0.00000000000000	
10.16996400000000	-1.50859500000000	101.76420600000000	-12.12305200000000	0.38151200000000	0.00000000000000	0.11597000000000	-48.86493900000000	771.55278799999996	-50.65692800000000	0.12512600000000	0.00000000000000	-0.06902100000000	0.00000000000000	-10.41766300000000	0.00000000000000	0.00000000000000	-17.53317300000000	0.00000000000000	
10.17162900000000	-0.70471500000000	107.44414100000000	-11.93240700000000	0.38408100000000	0.00000000000000	0.11637500000000	-49.58277000000000	768.45749799999999	-50.30860700000000	0.12438800000000	0.00000000000000	-0.06887500000000	0.00000000000000	-10.46394900000000	0.00000000000000	0.00000000000000	-17.46947500000000	0.00000000000000	
10.17329700000000	0.16199100000000	113.15615300000000	-11.67996100000000	0.38649100000000	0.00000000000000	0.11675900000000	-50.31461600000000	765.24723300000005	-49.94843400000000	0.12365700000000	0.00000000000000	-0.06872600000000	0.00000000000000	-10.47117600000000	0.00000000000000	0.00000000000000	-17.40728000000000	0.00000000000000	
10.17496200000000	1.08209000000000	118.94449400000001	-11.37877500000000	0.38875200000000	0.00000000000000	0.11712700000000	-51.05966100000000	761.91993300000001	-49.57624300000000	0.12293300000000	0.00000000000000	-0.06857500000000	0.00000000000000	-10.44910000000000	0.00000000000000	0.00000000000000	-17.34647500000000	0.00000000000000	
10.17662500000000	2.04781100000000	124.84683699999999	-11.03961400000000	0.39087500000000	0.00000000000000	0.11747800000000	-51.81699400000000	758.47350900000004	-49.19187900000000	0.12221600000000	0.00000000000000	-0.06842100000000	0.00000000000000	-10.40581200000000	0.00000000000000	0.00000000000000	-17.28693500000000	0.00000000000000	
10.17829600000000	3.05318100000000	130.89256300000000	-10.67063600000000	0.39286900000000	0.00000000000000	0.11781500000000	-52.58561300000000	754.90584899999999	-48.79518900000000	0.12150700000000	0.00000000000000	-0.06826500000000	0.00000000000000	-10.34746600000000	0.00000000000000	0.00000000000000	-17.22851800000000	0.00000000000000	
10.17996400000000	4.09399300000000	137.10195300000001	-10.27734100000000	0.39474300000000	0.00000000000000	0.11813900000000	-53.36442600000000	751.21482700000001	-48.38603000000000	0.12080400000000	0.00000000000000	-0.06810600000000	0.00000000000000	-10.27819800000000	0.00000000000000	0.00000000000000	-17.17107200000000	0.00000000000000	
10.18163000000000	5.16764700000000	143.48617400000001	-9.86271800000000	0.39650400000000	0.00000000000000	0.11845000000000	-54.15225200000000	747.39830700000005	-47.96426900000000	0.12010900000000	0.00000000000000	-0.06794400000000	0.00000000000000	-10.20021300000000	0.00000000000000	0.00000000000000	-17.11443100000000	0.00000000000000	
10.18329200000000	6.27289500000000	150.04790299999999	-9.42756200000000	0.39815700000000	0.00000000000000	0.11875100000000	-54.94782200000000	743.45415400000002	-47.52978700000000	0.11942100000000	0.00000000000000	-0.06778000000000	0.00000000000000	-10.11400000000000	0.00000000000000	0.00000000000000	-17.05841500000000	0.00000000000000	
10.18496500000000	7.40952600000000	156.78245500000000	-8.97088800000000	0.39970800000000	0.00000000000000	0.11904100000000	-55.74978000000000	739.38024399999995	-47.08247500000000	0.11874100000000	0.00000000000000	-0.06761400000000	0.00000000000000	-10.01863600000000	0.00000000000000	0.00000000000000	-17.00283500000000	0.00000000000000	
10.18662600000000	8.57802700000000	163.67919900000001	-8.49040900000000	0.40116200000000	0.00000000000000	0.11932100000000	-56.55668700000000	735.17446600000005	-46.62224100000000	0.11806800000000	0.00000000000000	-0.06744500000000	0.00000000000000	-9.91214800000000	0.00000000000000	0.00000000000000	-16.94749100000000	0.00000000000000	
10.18829200000000	9.77925400000000	170.72313900000000	-7.98302100000000	0.40252200000000	0.00000000000000	0.11959200000000	-57.36702400000000	730.83474200000001	-46.14901100000000	0.11740200000000	0.00000000000000	-0.06727300000000	0.00000000000000	-9.79187500000000	0.00000000000000	0.00000000000000	-16.89217100000000	0.00000000000000	
10.18996400000000	11.01412400000000	177.89648800000001	-7.44525900000000	0.40379400000000	0.00000000000000	0.11985500000000	-58.17919400000000	726.35902599999997	-45.66272600000000	0.11674300000000	0.00000000000000	-0.06710000000000	0.00000000000000	-9.65483200000000	0.00000000000000	0.00000000000000	-16.83665600000000	0.00000000000000	
10.19163000000000	12.28336300000000	185.18013300000001	-6.87369900000000	0.40497900000000	0.00000000000000	0.12011000000000	-58.99152500000000	721.74532099999999	-45.16334900000000	0.11609100000000	0.00000000000000	-0.06692400000000	0.00000000000000	-9.49801700000000	0.00000000000000	0.00000000000000	-16.78071700000000	0.00000000000000	
10.19329700000000	13.58730600000000	192.55490100000000	-6.26528900000000	0.40608100000000	0.00000000000000	0.12035700000000	-59.80227500000000	716.99169099999995	-44.65086600000000	0.11544700000000	0.00000000000000	-0.06674600000000	0.00000000000000	-9.31867500000000	0.00000000000000	0.00000000000000	-16.72411800000000	0.00000000000000	
10.19496700000000	14.92575500000000	200.00257300000001	-5.61758200000000	0.40710200000000	0.00000000000000	0.12059700000000	-60.60963500000000	712.09626500000002	-44.12528100000000	0.11480900000000	0.00000000000000	-0.06656600000000	0.00000000000000	-9.11449100000000	0.00000000000000	0.00000000000000	-16.66661700000000	0.00000000000000	
10.19663200000000	16.29790600000000	207.50662399999999	-4.92890100000000	0.40804500000000	0.00000000000000	0.12083000000000	-61.41173200000000	707.05725800000005	-43.58662700000000	0.11417800000000	0.00000000000000	-0.06638400000000	0.00000000000000	-8.88372200000000	0.00000000000000	0.00000000000000	-16.60796600000000	0.00000000000000	
